<svg viewBox="0 0 15 12" fill="none" xmlns="http://www.w3.org/2000/svg" xmlns:xlink="http://www.w3.org/1999/xlink" x="0" y="0"><path id="icon_4" d="M1.5,12c-0.41,0 -0.77,-0.15 -1.06,-0.44c-0.29,-0.29 -0.44,-0.65 -0.44,-1.06v-9c0,-0.41 0.15,-0.77 0.44,-1.06c0.29,-0.29 0.65,-0.44 1.06,-0.44h12c0.41,0 0.77,0.15 1.06,0.44c0.29,0.29 0.44,0.65 0.44,1.06v9c0,0.41 -0.15,0.77 -0.44,1.06c-0.29,0.29 -0.65,0.44 -1.06,0.44zM7.5,6.75l-6,-3.75v7.5h12v-7.5zM7.5,5.25l6,-3.75h-12zM1.5,3v-1.5v9z" fill="currentColor"/></svg>