<svg viewBox="0 0 32 32" fill="none" xmlns="http://www.w3.org/2000/svg" xmlns:xlink="http://www.w3.org/1999/xlink" x="0" y="0"><g id="Group 109">
<path id="Line 4 (Stroke)" d="M16.935,5.4453c-0.353,0.2827 -0.659,0.4447 -0.982,0.4389c-0.322,-0.0058 -0.614,-0.1775 -0.94,-0.4391l0.22,-0.2733c0.315,0.2536 0.529,0.3583 0.726,0.3619c0.196,0.0035 0.42,-0.0921 0.757,-0.3621z" fill="currentColor"/>
<path id="Line 3 (Stroke)" d="M5.3457,14.8137c0.2617,0.3256 0.4334,0.6182 0.4392,0.9395c0.0058,0.3228 -0.1563,0.6293 -0.439,0.9825l-0.2736,-0.2191c0.27,-0.3373 0.3656,-0.5616 0.3621,-0.7571c-0.0036,-0.1971 -0.1083,-0.4106 -0.3619,-0.7262z" fill="currentColor"/>
<path id="Line 2 (Stroke)" d="M16.103,26.1161c0.322,-0.0059 0.629,0.1562 0.982,0.4389l-0.219,0.2737c-0.337,-0.27 -0.562,-0.3657 -0.757,-0.3621c-0.197,0.0035 -0.411,0.1082 -0.726,0.3619l-0.22,-0.2733c0.326,-0.2616 0.618,-0.4333 0.94,-0.4391z" fill="currentColor"/>
<g id="Group 65">
<g id="Group 66">
<path id="Line 1 (Stroke)" d="M26.929,15.0328c-0.27,0.3373 -0.366,0.5615 -0.362,0.7571c0.004,0.1971 0.108,0.4105 0.362,0.7262l-0.273,0.2196c-0.262,-0.3256 -0.434,-0.6183 -0.44,-0.9395c-0.005,-0.3229 0.157,-0.6293 0.439,-0.9825z" fill="currentColor"/>
</g>
<g id="Vector">
<path d="M8.9987,21.0097c0.2025,-0.2144 0.1966,-0.556 -0.013,-0.763l-3.4708,-3.427c-0.2097,-0.207 -0.5437,-0.2011 -0.7462,0.0133l-4.3384,4.5935c-0.2024,0.2144 -0.1966,0.556 0.013,0.763l3.0912,3.0522c0.4193,0.4141 1.0875,0.4021 1.4924,-0.0266z" fill="currentColor"/>
<path d="M0.2305,9.8762c-0.0675,-0.0714 -0.0656,-0.1853 0.0043,-0.2543l3.9297,-3.8801c0.0699,-0.069 0.1812,-0.0671 0.2487,0.0044l4.5096,4.7748c0.0674,0.0714 0.0655,0.1853 -0.0044,0.2543l-3.9296,3.8801c-0.0699,0.069 -0.1813,0.067 -0.2488,-0.0044z" fill="currentColor"/>
<path d="M0.5692,7.0536c-0.3201,1.0787 0.6424,2.0978 1.708,1.8083l1.7222,-0.4679c1.0377,-0.2819 1.3967,-1.6003 0.6509,-2.3901l-1.2048,-1.2756c-0.7459,-0.7897 -2.0471,-0.4688 -2.3589,0.5817z" fill="currentColor"/>
<path d="M0.7938,24.1339c-0.2948,-1.0976 0.7143,-2.094 1.7768,-1.7545l1.7721,0.5664c1.0198,0.326 1.3263,1.6494 0.5577,2.4084l-1.2804,1.2642c-0.7686,0.7589 -2.0515,0.3995 -2.3345,-0.654z" fill="currentColor"/>
<path d="M0.0432,8.9269c-0.1945,0.6785 0.291,1.3618 0.9823,1.3823l3.836,0.1136c0.8761,0.0259 1.3996,-0.988 0.8844,-1.713l-2.7563,-3.8791c-0.5152,-0.7249 -1.6201,-0.5292 -1.8666,0.3307z" fill="currentColor"/>
<path d="M0.217,22.4988c-0.2107,-0.6549 0.2251,-1.3411 0.896,-1.4107l3.681,-0.382c0.8816,-0.0915 1.4743,0.9015 0.9917,1.6614l-2.5251,3.9757c-0.4826,0.7598 -1.6109,0.6101 -1.8877,-0.2506z" fill="currentColor"/>
<path d="M6.8946,9.5934c1.0263,0 2.0106,0.6538 2.7364,1.8174c0.7257,1.1637 1.1334,2.742 1.1334,4.3876c0,1.6457 -0.4077,3.224 -1.1334,4.3876c-0.7258,1.1637 -1.7101,1.8174 -2.7364,1.8174z" fill="currentColor"/>
<path d="M7.0553,18.766l2.5278,-3.0802l-2.2715,-1.9489l-2.5278,3.0803z" fill="currentColor"/>
<path d="M4.6079,14.5105l1.5301,1.7376l2.4884,-2.291l-1.5301,-1.7376z" fill="currentColor"/>
<path d="M10.8416,9.201c0.2097,0.207 0.5438,0.201 0.7462,-0.0133l3.3522,-3.5489c0.202,-0.2143 0.196,-0.5559 -0.014,-0.7629l-4.4921,-4.436c-0.2096,-0.207 -0.5437,-0.201 -0.7461,0.0134l-2.9852,3.1606c-0.4049,0.4288 -0.3932,1.1119 0.0261,1.5259z" fill="currentColor"/>
<path d="M21.73,0.2356c0.07,-0.069 0.182,-0.067 0.249,0.0045l3.795,4.018c0.067,0.0714 0.065,0.1853 -0.004,0.2543l-4.67,4.6109c-0.07,0.069 -0.182,0.067 -0.249,-0.0044l-3.795,-4.018c-0.067,-0.0715 -0.065,-0.1853 0.005,-0.2543z" fill="currentColor"/>
<path d="M24.491,0.582c-1.055,-0.3274 -2.052,0.6568 -1.769,1.7463l0.458,1.761c0.276,1.061 1.565,1.4281 2.337,0.6655l1.248,-1.2319c0.772,-0.7626 0.459,-2.0931 -0.569,-2.4119z" fill="currentColor"/>
<path d="M7.7862,0.8116c1.0733,-0.3015 2.0479,0.7304 1.7158,1.8167l-0.5539,1.812c-0.3188,1.0427 -1.6132,1.3561 -2.3554,0.5702l-1.2364,-1.3091c-0.7423,-0.7859 -0.3908,-2.0976 0.6395,-2.387z" fill="currentColor"/>
<path d="M22.659,0.0442c-0.664,-0.199 -1.332,0.2975 -1.352,1.0043l-0.111,3.9223c-0.026,0.8957 0.966,1.431 1.675,0.9043l3.794,-2.8184c0.709,-0.5267 0.517,-1.6564 -0.324,-1.9085z" fill="currentColor"/>
<path d="M9.3852,0.2218c0.6406,-0.2154 1.3117,0.2302 1.3798,0.9162l0.3735,3.7637c0.0895,0.9014 -0.8816,1.5075 -1.6248,1.014l-3.8883,-2.5818c-0.7432,-0.4935 -0.5967,-1.6471 0.2451,-1.9302z" fill="currentColor"/>
<path d="M22.007,7.0496c0,1.0494 -0.639,2.0558 -1.778,2.7978c-1.138,0.7421 -2.681,1.159 -4.291,1.159c-1.609,0 -3.1527,-0.4169 -4.2908,-1.159c-1.1381,-0.742 -1.7775,-1.7484 -1.7775,-2.7978z" fill="currentColor"/>
<path d="M13.0359,7.2139l3.0121,2.5846l1.906,-2.3225l-3.012,-2.5847z" fill="currentColor"/>
<path d="M17.198,4.7114l-1.699,1.5645l2.24,2.5444l1.7,-1.5645z" fill="currentColor"/>
<path d="M21.251,22.7989c-0.209,-0.207 -0.543,-0.201 -0.746,0.0134l-3.352,3.5488c-0.202,0.2143 -0.196,0.5559 0.014,0.7629l4.492,4.436c0.21,0.207 0.544,0.201 0.746,-0.0133l2.985,-3.1607c0.405,-0.4288 0.394,-1.1119 -0.026,-1.5259z" fill="currentColor"/>
<path d="M10.3627,31.7643c-0.0699,0.069 -0.1812,0.067 -0.2487,-0.0044l-3.7948,-4.018c-0.0675,-0.0715 -0.0656,-0.1854 0.0043,-0.2544l4.6698,-4.6109c0.0699,-0.069 0.1812,-0.067 0.2487,0.0044l3.795,4.018c0.067,0.0715 0.065,0.1854 -0.005,0.2544z" fill="currentColor"/>
<path d="M7.6021,31.4179c1.0551,0.3274 2.0518,-0.6568 1.7686,-1.7463l-0.4576,-1.761c-0.2757,-1.061 -1.5652,-1.4281 -2.3375,-0.6655l-1.2476,1.2319c-0.7724,0.7626 -0.4585,2.0931 0.5689,2.4119z" fill="currentColor"/>
<path d="M24.307,31.1883c-1.074,0.3015 -2.048,-0.7304 -1.716,-1.8167l0.554,-1.812c0.319,-1.0427 1.613,-1.3561 2.355,-0.5702l1.237,1.3091c0.742,0.7859 0.391,2.0976 -0.64,2.387z" fill="currentColor"/>
<path d="M9.4342,31.9557c0.6636,0.199 1.3319,-0.2975 1.3519,-1.0043l0.1112,-3.9223c0.0253,-0.8957 -0.9663,-1.431 -1.6754,-0.9043l-3.7937,2.8184c-0.7091,0.5267 -0.5176,1.6564 0.3234,1.9085z" fill="currentColor"/>
<path d="M22.708,31.7781c-0.641,0.2154 -1.312,-0.2302 -1.38,-0.9161l-0.374,-3.7638c-0.089,-0.9014 0.882,-1.5075 1.625,-1.014l3.889,2.5818c0.743,0.4935 0.596,1.6471 -0.245,1.9302z" fill="currentColor"/>
<path d="M10.0861,24.9504c0,-1.0495 0.6394,-2.0559 1.7775,-2.7979c1.1381,-0.7421 2.6814,-1.159 4.2914,-1.159c1.609,0 3.153,0.4169 4.291,1.159c1.138,0.742 1.777,1.7484 1.777,2.7979z" fill="currentColor"/>
<path d="M19.057,24.786l-3.012,-2.5846l-1.906,2.3225l3.012,2.5847z" fill="currentColor"/>
<path d="M14.895,27.2885l1.699,-1.5645l-2.24,-2.5444l-1.6995,1.5645z" fill="currentColor"/>
<path d="M23.001,21.0097c-0.202,-0.2144 -0.196,-0.556 0.013,-0.763l3.471,-3.427c0.21,-0.207 0.544,-0.2011 0.746,0.0133l4.339,4.5935c0.202,0.2144 0.196,0.556 -0.013,0.763l-3.092,3.0522c-0.419,0.4141 -1.087,0.4021 -1.492,-0.0266z" fill="currentColor"/>
<path d="M31.77,9.8762c0.067,-0.0714 0.065,-0.1853 -0.005,-0.2543l-3.929,-3.8801c-0.07,-0.069 -0.182,-0.0671 -0.249,0.0044l-4.51,4.7748c-0.067,0.0714 -0.065,0.1853 0.005,0.2543l3.929,3.8801c0.07,0.069 0.181,0.067 0.249,-0.0044z" fill="currentColor"/>
<path d="M31.431,7.0536c0.32,1.0787 -0.643,2.0978 -1.708,1.8083l-1.722,-0.4679c-1.038,-0.2819 -1.397,-1.6003 -0.651,-2.3901l1.205,-1.2756c0.745,-0.7897 2.047,-0.4688 2.358,0.5817z" fill="currentColor"/>
<path d="M31.206,24.1339c0.295,-1.0976 -0.714,-2.094 -1.777,-1.7545l-1.772,0.5664c-1.019,0.326 -1.326,1.6494 -0.557,2.4084l1.28,1.2642c0.769,0.7589 2.051,0.3995 2.334,-0.654z" fill="currentColor"/>
<path d="M31.957,8.9269c0.194,0.6785 -0.291,1.3618 -0.982,1.3823l-3.837,0.1136c-0.876,0.0259 -1.399,-0.988 -0.884,-1.713l2.756,-3.8791c0.516,-0.7249 1.62,-0.5292 1.867,0.3307z" fill="currentColor"/>
<path d="M31.783,22.4988c0.211,-0.6549 -0.225,-1.3411 -0.896,-1.4107l-3.681,-0.382c-0.882,-0.0915 -1.474,0.9015 -0.992,1.6614l2.525,3.9757c0.483,0.7598 1.611,0.6101 1.888,-0.2506z" fill="currentColor"/>
<path d="M25.105,9.5934c-1.026,0 -2.01,0.6538 -2.736,1.8174c-0.726,1.1637 -1.133,2.742 -1.133,4.3876c0,1.6457 0.407,3.224 1.133,4.3876c0.726,1.1637 1.71,1.8174 2.736,1.8174z" fill="currentColor"/>
<path d="M24.945,18.766l-2.528,-3.0802l2.271,-1.9489l2.528,3.0803z" fill="currentColor"/>
<path d="M27.392,14.5105l-1.53,1.7376l-2.488,-2.291l1.53,-1.7376z" fill="currentColor"/>
</g>
</g>
</g></svg>