<svg viewBox="0 0 16 16" fill="none" xmlns="http://www.w3.org/2000/svg" xmlns:xlink="http://www.w3.org/1999/xlink" x="0" y="0"><path id="icon_2" d="M8,8c-1.1,0 -2.042,-0.39 -2.825,-1.17c-0.783,-0.79 -1.175,-1.73 -1.175,-2.83c0,-1.1 0.392,-2.04 1.175,-2.82c0.783,-0.79 1.725,-1.18 2.825,-1.18c1.1,0 2.042,0.39 2.825,1.18c0.783,0.78 1.175,1.72 1.175,2.82c0,1.1 -0.392,2.04 -1.175,2.83c-0.783,0.78 -1.725,1.17 -2.825,1.17zM0,16v-2.8c0,-0.57 0.146,-1.09 0.438,-1.56c0.291,-0.48 0.679,-0.84 1.162,-1.09c1.033,-0.52 2.083,-0.9 3.15,-1.16c1.067,-0.26 2.15,-0.39 3.25,-0.39c1.1,0 2.183,0.13 3.25,0.39c1.067,0.26 2.117,0.64 3.15,1.16c0.483,0.25 0.871,0.61 1.162,1.09c0.292,0.47 0.438,0.99 0.438,1.56v2.8zM2,14h12v-0.8c0,-0.18 -0.046,-0.35 -0.137,-0.5c-0.092,-0.15 -0.213,-0.27 -0.363,-0.35c-0.9,-0.45 -1.808,-0.79 -2.725,-1.01c-0.917,-0.23 -1.842,-0.34 -2.775,-0.34c-0.933,0 -1.858,0.11 -2.775,0.34c-0.917,0.22 -1.825,0.56 -2.725,1.01c-0.15,0.08 -0.271,0.2 -0.362,0.35c-0.092,0.15 -0.138,0.32 -0.138,0.5zM8,6c0.55,0 1.021,-0.2 1.413,-0.59c0.391,-0.39 0.587,-0.86 0.587,-1.41c0,-0.55 -0.196,-1.02 -0.587,-1.41c-0.392,-0.39 -0.863,-0.59 -1.413,-0.59c-0.55,0 -1.021,0.2 -1.412,0.59c-0.392,0.39 -0.588,0.86 -0.588,1.41c0,0.55 0.196,1.02 0.588,1.41c0.391,0.39 0.862,0.59 1.412,0.59z" fill="currentColor"/></svg>