<svg viewBox="0 0 15 15" fill="none" xmlns="http://www.w3.org/2000/svg" xmlns:xlink="http://www.w3.org/1999/xlink" x="0" y="0"><path id="icon" d="M4.8,11.25l2.7,-2.7l2.7,2.7l1.05,-1.05l-2.7,-2.7l2.7,-2.7l-1.05,-1.05l-2.7,2.7l-2.7,-2.7l-1.05,1.05l2.7,2.7l-2.7,2.7zM7.5,15c-1.037,0 -2.012,-0.197 -2.925,-0.591c-0.913,-0.393 -1.706,-0.928 -2.381,-1.603c-0.675,-0.675 -1.21,-1.468 -1.603,-2.381c-0.394,-0.912 -0.591,-1.887 -0.591,-2.925c0,-1.037 0.197,-2.012 0.591,-2.925c0.393,-0.913 0.928,-1.706 1.603,-2.381c0.675,-0.675 1.468,-1.21 2.381,-1.603c0.913,-0.394 1.888,-0.591 2.925,-0.591c1.038,0 2.013,0.197 2.925,0.591c0.913,0.393 1.706,0.928 2.381,1.603c0.675,0.675 1.21,1.468 1.603,2.381c0.394,0.913 0.591,1.888 0.591,2.925c0,1.038 -0.197,2.013 -0.591,2.925c-0.393,0.913 -0.928,1.706 -1.603,2.381c-0.675,0.675 -1.468,1.21 -2.381,1.603c-0.912,0.394 -1.887,0.591 -2.925,0.591zM7.5,13.5c1.675,0 3.094,-0.581 4.256,-1.744c1.163,-1.162 1.744,-2.581 1.744,-4.256c0,-1.675 -0.581,-3.094 -1.744,-4.256c-1.162,-1.163 -2.581,-1.744 -4.256,-1.744c-1.675,0 -3.094,0.581 -4.256,1.744c-1.163,1.162 -1.744,2.581 -1.744,4.256c0,1.675 0.581,3.094 1.744,4.256c1.162,1.163 2.581,1.744 4.256,1.744z" fill="currentColor"/></svg>