<svg width="349" height="81" viewBox="0 0 349 81" fill="none" xmlns="http://www.w3.org/2000/svg">
<path d="M114.631 51.1313C114.631 50.4868 114.47 49.9049 114.148 49.3857C113.826 48.8486 113.208 48.3652 112.295 47.9355C111.4 47.5059 110.075 47.112 108.32 46.7539C106.781 46.4137 105.366 46.0109 104.077 45.5454C102.806 45.062 101.714 44.4801 100.801 43.7998C99.8877 43.1195 99.1805 42.3138 98.6792 41.3828C98.1779 40.4518 97.9272 39.3776 97.9272 38.1602C97.9272 36.9785 98.1868 35.8595 98.7061 34.8032C99.2253 33.7469 99.9683 32.8159 100.935 32.0103C101.902 31.2046 103.075 30.569 104.453 30.1035C105.85 29.638 107.407 29.4053 109.126 29.4053C111.561 29.4053 113.647 29.8171 115.383 30.6406C117.138 31.4463 118.481 32.5474 119.412 33.9438C120.343 35.3224 120.808 36.88 120.808 38.6167H114.336C114.336 37.8468 114.139 37.1307 113.745 36.4683C113.369 35.7879 112.796 35.2419 112.026 34.8301C111.257 34.4004 110.29 34.1855 109.126 34.1855C108.016 34.1855 107.094 34.3646 106.36 34.7227C105.644 35.0628 105.107 35.5104 104.749 36.0654C104.408 36.6204 104.238 37.2292 104.238 37.8916C104.238 38.375 104.328 38.8136 104.507 39.2075C104.704 39.5835 105.026 39.9326 105.474 40.2549C105.921 40.5592 106.53 40.8457 107.3 41.1143C108.088 41.3828 109.072 41.6424 110.254 41.8931C112.474 42.3586 114.381 42.9583 115.974 43.6924C117.585 44.4085 118.821 45.3395 119.68 46.4854C120.54 47.6133 120.969 49.0456 120.969 50.7822C120.969 52.0713 120.692 53.2529 120.137 54.3271C119.6 55.3835 118.812 56.3055 117.773 57.0933C116.735 57.8631 115.491 58.4629 114.041 58.8926C112.608 59.3223 110.997 59.5371 109.207 59.5371C106.575 59.5371 104.346 59.0716 102.52 58.1406C100.693 57.1917 99.3058 55.9832 98.3569 54.5151C97.4259 53.0291 96.9604 51.4894 96.9604 49.896H103.218C103.289 51.0955 103.621 52.0534 104.211 52.7695C104.82 53.4678 105.572 53.978 106.467 54.3003C107.38 54.6047 108.32 54.7568 109.287 54.7568C110.451 54.7568 111.427 54.6047 112.214 54.3003C113.002 53.978 113.602 53.5483 114.014 53.0112C114.425 52.4562 114.631 51.8296 114.631 51.1313ZM139.446 59.5371C137.297 59.5371 135.355 59.188 133.618 58.4897C131.899 57.7736 130.431 56.7799 129.214 55.5088C128.014 54.2376 127.092 52.7427 126.448 51.0239C125.803 49.3052 125.481 47.4521 125.481 45.4648V44.3906C125.481 42.1169 125.812 40.0579 126.475 38.2139C127.137 36.3698 128.059 34.7943 129.241 33.4873C130.422 32.1624 131.819 31.1509 133.43 30.4526C135.042 29.7544 136.787 29.4053 138.667 29.4053C140.744 29.4053 142.561 29.7544 144.119 30.4526C145.676 31.1509 146.965 32.1356 147.986 33.4067C149.024 34.66 149.794 36.1549 150.295 37.8916C150.815 39.6283 151.074 41.5439 151.074 43.6387V46.4048H128.623V41.7588H144.683V41.2485C144.647 40.0848 144.414 38.9927 143.984 37.9722C143.573 36.9517 142.937 36.1281 142.078 35.5015C141.218 34.8748 140.072 34.5615 138.64 34.5615C137.566 34.5615 136.608 34.7943 135.767 35.2598C134.943 35.7074 134.254 36.3608 133.699 37.2202C133.144 38.0796 132.714 39.118 132.41 40.3354C132.123 41.535 131.98 42.8867 131.98 44.3906V45.4648C131.98 46.736 132.15 47.9176 132.49 49.0098C132.848 50.084 133.368 51.0239 134.048 51.8296C134.728 52.6353 135.552 53.2708 136.519 53.7363C137.485 54.1839 138.586 54.4077 139.822 54.4077C141.379 54.4077 142.767 54.0944 143.984 53.4678C145.202 52.8411 146.258 51.9549 147.153 50.8091L150.564 54.1123C149.937 55.0254 149.123 55.9027 148.12 56.7441C147.118 57.5677 145.891 58.2391 144.441 58.7583C143.009 59.2775 141.344 59.5371 139.446 59.5371ZM172.505 53.1724V39.3149C172.505 38.2765 172.317 37.3813 171.941 36.6294C171.565 35.8774 170.992 35.2956 170.222 34.8838C169.47 34.472 168.521 34.2661 167.375 34.2661C166.319 34.2661 165.406 34.4451 164.636 34.8032C163.866 35.1613 163.267 35.6447 162.837 36.2534C162.407 36.8621 162.192 37.5514 162.192 38.3213H155.747C155.747 37.1755 156.025 36.0654 156.58 34.9912C157.135 33.917 157.94 32.9591 158.997 32.1177C160.053 31.2762 161.315 30.6138 162.783 30.1304C164.251 29.647 165.898 29.4053 167.725 29.4053C169.909 29.4053 171.842 29.7723 173.525 30.5063C175.226 31.2404 176.56 32.3504 177.527 33.8364C178.512 35.3045 179.004 37.1486 179.004 39.3687V52.2861C179.004 53.611 179.093 54.8016 179.272 55.8579C179.469 56.8963 179.747 57.8005 180.105 58.5703V59H173.472C173.167 58.3018 172.926 57.4155 172.747 56.3413C172.585 55.2492 172.505 54.1929 172.505 53.1724ZM173.445 41.3291L173.499 45.3306H168.853C167.653 45.3306 166.597 45.4469 165.684 45.6797C164.771 45.8945 164.01 46.2168 163.401 46.6465C162.792 47.0762 162.336 47.5954 162.031 48.2041C161.727 48.8128 161.575 49.5021 161.575 50.272C161.575 51.0418 161.754 51.749 162.112 52.3936C162.47 53.0202 162.989 53.5125 163.669 53.8706C164.368 54.2287 165.209 54.4077 166.194 54.4077C167.519 54.4077 168.674 54.1392 169.658 53.6021C170.661 53.047 171.449 52.3757 172.021 51.5879C172.594 50.7822 172.899 50.0213 172.935 49.3052L175.029 52.1787C174.814 52.9128 174.447 53.7005 173.928 54.542C173.409 55.3835 172.729 56.1891 171.887 56.959C171.064 57.7109 170.07 58.3286 168.906 58.812C167.76 59.2954 166.436 59.5371 164.932 59.5371C163.034 59.5371 161.342 59.1611 159.856 58.4092C158.37 57.6393 157.206 56.6099 156.365 55.3208C155.523 54.0138 155.103 52.5368 155.103 50.8896C155.103 49.3499 155.389 47.9893 155.962 46.8076C156.553 45.6081 157.412 44.6055 158.54 43.7998C159.686 42.9941 161.082 42.3854 162.729 41.9736C164.377 41.5439 166.257 41.3291 168.369 41.3291H173.445ZM192.271 35.4746V59H185.798V29.9424H191.975L192.271 35.4746ZM201.16 29.7544L201.106 35.77C200.712 35.6984 200.282 35.6447 199.817 35.6089C199.369 35.5731 198.922 35.5552 198.474 35.5552C197.364 35.5552 196.388 35.7163 195.547 36.0386C194.705 36.3429 193.998 36.7905 193.425 37.3813C192.87 37.9543 192.441 38.6525 192.136 39.4761C191.832 40.2996 191.653 41.2217 191.599 42.2422L190.122 42.3496C190.122 40.5234 190.301 38.8315 190.659 37.2739C191.017 35.7163 191.554 34.3467 192.271 33.165C193.005 31.9834 193.918 31.0614 195.01 30.3989C196.12 29.7365 197.4 29.4053 198.85 29.4053C199.244 29.4053 199.665 29.4411 200.112 29.5127C200.578 29.5843 200.927 29.6649 201.16 29.7544ZM216.548 54.3809C217.604 54.3809 218.553 54.175 219.395 53.7632C220.254 53.3335 220.943 52.7427 221.462 51.9907C222 51.2388 222.295 50.3704 222.349 49.3857H228.445C228.409 51.2656 227.854 52.9754 226.78 54.5151C225.706 56.0549 224.282 57.2812 222.51 58.1943C220.737 59.0895 218.777 59.5371 216.628 59.5371C214.408 59.5371 212.475 59.1611 210.828 58.4092C209.181 57.6393 207.811 56.583 206.719 55.2402C205.627 53.8975 204.803 52.3488 204.248 50.5942C203.711 48.8397 203.442 46.9598 203.442 44.9546V44.0146C203.442 42.0094 203.711 40.1296 204.248 38.375C204.803 36.6025 205.627 35.0449 206.719 33.7021C207.811 32.3594 209.181 31.312 210.828 30.5601C212.475 29.7902 214.399 29.4053 216.602 29.4053C218.929 29.4053 220.97 29.8708 222.725 30.8018C224.479 31.7148 225.858 32.995 226.86 34.6421C227.881 36.2713 228.409 38.1691 228.445 40.3354H222.349C222.295 39.2612 222.026 38.2944 221.543 37.4351C221.077 36.5578 220.415 35.8595 219.556 35.3403C218.714 34.8211 217.703 34.5615 216.521 34.5615C215.214 34.5615 214.131 34.8301 213.271 35.3672C212.412 35.8864 211.741 36.6025 211.257 37.5156C210.774 38.4108 210.425 39.4224 210.21 40.5503C210.013 41.6603 209.915 42.8151 209.915 44.0146V44.9546C209.915 46.1541 210.013 47.3179 210.21 48.4458C210.407 49.5737 210.747 50.5853 211.23 51.4805C211.732 52.3577 212.412 53.0649 213.271 53.6021C214.131 54.1213 215.223 54.3809 216.548 54.3809ZM239.805 17.75V59H233.359V17.75H239.805ZM238.677 43.397L236.582 43.3701C236.6 41.3649 236.877 39.5119 237.415 37.811C237.97 36.1102 238.739 34.6331 239.724 33.3799C240.727 32.1087 241.926 31.133 243.323 30.4526C244.719 29.7544 246.268 29.4053 247.969 29.4053C249.401 29.4053 250.69 29.6022 251.836 29.9961C253 30.39 254.002 31.0256 254.844 31.9028C255.685 32.7622 256.321 33.8901 256.75 35.2866C257.198 36.6652 257.422 38.3481 257.422 40.3354V59H250.923V40.2817C250.923 38.8853 250.717 37.7752 250.305 36.9517C249.911 36.1281 249.329 35.5373 248.56 35.1792C247.79 34.8032 246.85 34.6152 245.74 34.6152C244.576 34.6152 243.547 34.848 242.651 35.3135C241.774 35.779 241.04 36.4146 240.449 37.2202C239.858 38.0259 239.411 38.9569 239.106 40.0132C238.82 41.0695 238.677 42.1974 238.677 43.397ZM270.903 17.75V59H264.404V17.75H270.903ZM286.426 55.8311L294.321 29.9424H301.25L289.595 63.4312C289.326 64.1473 288.977 64.9261 288.547 65.7676C288.118 66.609 287.554 67.4058 286.855 68.1577C286.175 68.9276 285.325 69.5452 284.304 70.0107C283.284 70.4941 282.048 70.7358 280.598 70.7358C280.025 70.7358 279.47 70.6821 278.933 70.5747C278.414 70.4852 277.922 70.3867 277.456 70.2793L277.429 65.3379C277.608 65.3558 277.823 65.3737 278.074 65.3916C278.342 65.4095 278.557 65.4185 278.718 65.4185C279.792 65.4185 280.688 65.2842 281.404 65.0156C282.12 64.765 282.702 64.3532 283.149 63.7803C283.615 63.2074 284.009 62.4375 284.331 61.4707L286.426 55.8311ZM281.968 29.9424L288.87 51.6953L290.024 58.5166L285.54 59.6714L274.985 29.9424H281.968ZM321.257 51.1313C321.257 50.4868 321.096 49.9049 320.774 49.3857C320.452 48.8486 319.834 48.3652 318.921 47.9355C318.026 47.5059 316.701 47.112 314.946 46.7539C313.407 46.4137 311.992 46.0109 310.703 45.5454C309.432 45.062 308.34 44.4801 307.427 43.7998C306.514 43.1195 305.806 42.3138 305.305 41.3828C304.804 40.4518 304.553 39.3776 304.553 38.1602C304.553 36.9785 304.813 35.8595 305.332 34.8032C305.851 33.7469 306.594 32.8159 307.561 32.0103C308.528 31.2046 309.701 30.569 311.079 30.1035C312.476 29.638 314.033 29.4053 315.752 29.4053C318.187 29.4053 320.273 29.8171 322.009 30.6406C323.764 31.4463 325.107 32.5474 326.038 33.9438C326.969 35.3224 327.434 36.88 327.434 38.6167H320.962C320.962 37.8468 320.765 37.1307 320.371 36.4683C319.995 35.7879 319.422 35.2419 318.652 34.8301C317.882 34.4004 316.916 34.1855 315.752 34.1855C314.642 34.1855 313.72 34.3646 312.986 34.7227C312.27 35.0628 311.733 35.5104 311.375 36.0654C311.034 36.6204 310.864 37.2292 310.864 37.8916C310.864 38.375 310.954 38.8136 311.133 39.2075C311.33 39.5835 311.652 39.9326 312.1 40.2549C312.547 40.5592 313.156 40.8457 313.926 41.1143C314.714 41.3828 315.698 41.6424 316.88 41.8931C319.1 42.3586 321.007 42.9583 322.6 43.6924C324.211 44.4085 325.447 45.3395 326.306 46.4854C327.166 47.6133 327.595 49.0456 327.595 50.7822C327.595 52.0713 327.318 53.2529 326.763 54.3271C326.226 55.3835 325.438 56.3055 324.399 57.0933C323.361 57.8631 322.117 58.4629 320.667 58.8926C319.234 59.3223 317.623 59.5371 315.833 59.5371C313.201 59.5371 310.972 59.0716 309.146 58.1406C307.319 57.1917 305.932 55.9832 304.983 54.5151C304.052 53.0291 303.586 51.4894 303.586 49.896H309.844C309.915 51.0955 310.247 52.0534 310.837 52.7695C311.446 53.4678 312.198 53.978 313.093 54.3003C314.006 54.6047 314.946 54.7568 315.913 54.7568C317.077 54.7568 318.053 54.6047 318.84 54.3003C319.628 53.978 320.228 53.5483 320.64 53.0112C321.051 52.4562 321.257 51.8296 321.257 51.1313ZM346.582 29.9424V34.6689H330.2V29.9424H346.582ZM334.927 22.8257H341.399V50.9702C341.399 51.8654 341.524 52.5547 341.775 53.0381C342.043 53.5036 342.41 53.8169 342.876 53.978C343.341 54.1392 343.888 54.2197 344.514 54.2197C344.962 54.2197 345.391 54.1929 345.803 54.1392C346.215 54.0854 346.546 54.0317 346.797 53.978L346.824 58.9194C346.287 59.0806 345.66 59.2238 344.944 59.3491C344.246 59.4744 343.44 59.5371 342.527 59.5371C341.041 59.5371 339.725 59.2775 338.579 58.7583C337.433 58.2212 336.538 57.3529 335.894 56.1533C335.249 54.9538 334.927 53.3604 334.927 51.373V22.8257Z" fill="black"/>
<path d="M22.778 53.1809C23.2904 52.6383 23.2757 51.7737 22.745 51.2497L13.9596 42.5749C13.4289 42.0509 12.5833 42.066 12.0708 42.6086L1.08921 54.2361C0.576752 54.7787 0.591512 55.6433 1.12218 56.1673L8.94678 63.8933C10.0081 64.9412 11.6993 64.9111 12.7243 63.8259L22.778 53.1809Z" fill="#FD2D15"/>
<path d="M0.583388 24.9993C0.412568 24.8184 0.417488 24.5302 0.594377 24.3556L10.5413 14.5339C10.7182 14.3593 11.0001 14.3643 11.1709 14.5452L22.5857 26.6313C22.7565 26.8122 22.7516 27.1004 22.5747 27.2751L12.6278 37.0967C12.4509 37.2713 12.169 37.2663 11.9982 37.0854L0.583388 24.9993Z" fill="#FD2D15"/>
<path d="M1.44084 17.8544C0.630475 20.5851 3.06679 23.1647 5.76406 22.4319L10.1235 21.2475C12.7501 20.5339 13.659 17.1966 11.7711 15.1976L8.72139 11.9686C6.83347 9.96964 3.53972 10.7819 2.75058 13.441L1.44084 17.8544Z" fill="#FD2D15"/>
<path d="M2.00929 61.0889C1.26301 58.3109 3.8175 55.7886 6.50679 56.6481L10.9924 58.0818C13.5738 58.9068 14.3496 62.2568 12.404 64.1778L9.16318 67.3779C7.21764 69.2989 3.97037 68.3893 3.25403 65.7226L2.00929 61.0889Z" fill="#FD2D15"/>
<path d="M0.109472 22.5963C-0.383007 24.3137 0.846003 26.0434 2.5957 26.0952L12.3057 26.3828C14.5232 26.4485 15.8483 23.8819 14.5444 22.0468L7.56738 12.2279C6.26342 10.3928 3.46666 10.8883 2.84251 13.065L0.109472 22.5963Z" fill="#FD2D15"/>
<path d="M0.54918 56.9503C0.0159395 55.2925 1.11912 53.5556 2.81722 53.3794L12.1348 52.4125C14.3663 52.1809 15.8666 54.6944 14.645 56.6178L8.25339 66.6813C7.03177 68.6047 4.17587 68.2256 3.47511 66.047L0.54918 56.9503Z" fill="#FD2D15"/>
<path d="M17.4519 24.2835C20.0499 24.2835 22.5414 25.9382 24.3784 28.8838C26.2154 31.8293 27.2474 35.8243 27.2474 39.9899C27.2474 44.1555 26.2154 48.1505 24.3784 51.096C22.5414 54.0416 20.0499 55.6963 17.4519 55.6963V24.2835Z" fill="#FD2D15"/>
<path d="M17.8587 47.5017L24.2573 39.7047L18.5076 34.7717L12.109 42.5686L17.8587 47.5017Z" fill="#FD2D15"/>
<path d="M11.6637 36.7298L15.5368 41.128L21.8357 35.329L17.9626 30.9308L11.6637 36.7298Z" fill="#FD2D15"/>
<path d="M27.4429 23.2901C27.9736 23.8141 28.8192 23.799 29.3316 23.2564L37.8157 14.2734C38.3281 13.7308 38.3134 12.8662 37.7827 12.3422L26.4109 1.1137C25.8802 0.589719 25.0346 0.60481 24.5222 1.14741L16.966 9.14792C15.9411 10.2331 15.9706 11.9624 17.032 13.0103L27.4429 23.2901Z" fill="#FD2D15"/>
<path d="M55.0048 0.596504C55.1817 0.421844 55.4636 0.426874 55.6344 0.60774L65.2401 10.7783C65.4109 10.9592 65.406 11.2474 65.2291 11.422L53.4087 23.0935C53.2318 23.2682 52.9499 23.2631 52.7791 23.0823L43.1735 12.9117C43.0026 12.7308 43.0076 12.4426 43.1844 12.2679L55.0048 0.596504Z" fill="#FD2D15"/>
<path d="M61.9926 1.47324C59.322 0.644649 56.7991 3.13574 57.5158 5.89365L58.6741 10.3511C59.372 13.0367 62.636 13.9661 64.591 12.0357L67.749 8.91746C69.704 6.9871 68.9096 3.6193 66.3089 2.81242L61.9926 1.47324Z" fill="#FD2D15"/>
<path d="M19.7087 2.05446C22.4257 1.29141 24.8926 3.90332 24.0519 6.65308L22.6498 11.2395C21.8428 13.879 18.5665 14.6722 16.6877 12.6829L13.5581 9.36919C11.6793 7.37991 12.5689 4.05963 15.1769 3.32718L19.7087 2.05446Z" fill="#FD2D15"/>
<path d="M57.355 0.111934C55.6753 -0.391618 53.9837 0.865023 53.933 2.65405L53.6518 12.5824C53.5875 14.8497 56.0977 16.2046 57.8924 14.8713L67.4954 7.73751C69.2901 6.40424 68.8056 3.5446 66.6768 2.90642L57.355 0.111934Z" fill="#FD2D15"/>
<path d="M23.7563 0.561527C25.3777 0.0162979 27.0765 1.14428 27.2488 2.88055L28.1944 12.4076C28.4209 14.6893 25.9627 16.2233 24.0816 14.9743L14.2393 8.43894C12.3582 7.18985 12.729 4.26975 14.8597 3.55324L23.7563 0.561527Z" fill="#FD2D15"/>
<path d="M55.7049 17.8443C55.7049 20.5006 54.0865 23.0482 51.2058 24.9265C48.325 26.8048 44.4179 27.86 40.3438 27.86C36.2698 27.86 32.3627 26.8048 29.4819 24.9265C26.6011 23.0482 24.9827 20.5006 24.9827 17.8443H55.7049Z" fill="#FD2D15"/>
<path d="M32.9972 18.2602L40.6227 24.8026L45.4473 18.9237L37.8218 12.3812L32.9972 18.2602Z" fill="#FD2D15"/>
<path d="M43.5322 11.9259L39.2307 15.8861L44.9023 22.3266L49.2038 18.3664L43.5322 11.9259Z" fill="#FD2D15"/>
<path d="M53.7926 57.7099C53.2619 57.1859 52.4163 57.201 51.9038 57.7436L43.4198 66.7266C42.9073 67.2692 42.9221 68.1338 43.4528 68.6578L54.8245 79.8863C55.3552 80.4103 56.2008 80.3952 56.7133 79.8526L64.2694 71.8521C65.2943 70.7669 65.2648 69.0376 64.2035 67.9897L53.7926 57.7099Z" fill="#FD2D15"/>
<path d="M26.2306 80.4035C26.0537 80.5781 25.7719 80.5731 25.601 80.3923L15.9954 70.2217C15.8246 70.0408 15.8295 69.7526 16.0064 69.5779L27.8268 57.9065C28.0036 57.7318 28.2855 57.7369 28.4563 57.9177L38.062 68.0883C38.2328 68.2692 38.2279 68.5574 38.051 68.732L26.2306 80.4035Z" fill="#FD2D15"/>
<path d="M19.2428 79.5268C21.9135 80.3553 24.4363 77.8643 23.7197 75.1064L22.5614 70.6489C21.8635 67.9633 18.5994 67.0339 16.6444 68.9643L13.4864 72.0825C11.5314 74.0129 12.3258 77.3807 14.9265 78.1876L19.2428 79.5268Z" fill="#FD2D15"/>
<path d="M61.5267 78.9455C58.8097 79.7086 56.3429 77.0967 57.1835 74.3469L58.5857 69.7605C59.3926 67.121 62.6689 66.3278 64.5477 68.3171L67.6774 71.6308C69.5562 73.6201 68.6665 76.9404 66.0585 77.6728L61.5267 78.9455Z" fill="#FD2D15"/>
<path d="M23.8804 80.8881C25.5601 81.3916 27.2517 80.135 27.3024 78.3459L27.5837 68.4176C27.6479 66.1503 25.1378 64.7954 23.3431 66.1286L13.7401 73.2625C11.9453 74.5958 12.4299 77.4554 14.5587 78.0936L23.8804 80.8881Z" fill="#FD2D15"/>
<path d="M57.4791 80.4385C55.8578 80.9837 54.159 79.8557 53.9867 78.1194L53.0411 68.5924C52.8146 66.3107 55.2728 64.7766 57.1539 66.0257L66.9961 72.5611C68.8773 73.8101 68.5065 76.7302 66.3758 77.4468L57.4791 80.4385Z" fill="#FD2D15"/>
<path d="M25.5305 63.1557C25.5305 60.4994 27.1489 57.9518 30.0297 56.0735C32.9104 54.1952 36.8176 53.14 40.8916 53.14C44.9656 53.14 48.8728 54.1952 51.7535 56.0735C54.6343 57.9518 56.2527 60.4994 56.2527 63.1557H25.5305Z" fill="#FD2D15"/>
<path d="M48.2382 62.7398L40.6127 56.1974L35.7881 62.0763L43.4136 68.6188L48.2382 62.7398Z" fill="#FD2D15"/>
<path d="M37.7032 69.0741L42.0047 65.1139L36.3332 58.6734L32.0317 62.6336L37.7032 69.0741Z" fill="#FD2D15"/>
<path d="M58.222 53.1809C57.7096 52.6383 57.7243 51.7737 58.255 51.2497L67.0404 42.5749C67.5711 42.0509 68.4167 42.066 68.9292 42.6086L79.9108 54.2361C80.4232 54.7787 80.4085 55.6433 79.8778 56.1673L72.0532 63.8933C70.9919 64.9412 69.3007 64.9111 68.2757 63.8259L58.222 53.1809Z" fill="#FD2D15"/>
<path d="M80.4166 24.9993C80.5874 24.8184 80.5825 24.5302 80.4056 24.3556L70.4587 14.5339C70.2818 14.3593 69.9999 14.3643 69.8291 14.5452L58.4143 26.6313C58.2435 26.8122 58.2484 27.1004 58.4253 27.2751L68.3722 37.0967C68.5491 37.2713 68.831 37.2663 69.0018 37.0854L80.4166 24.9993Z" fill="#FD2D15"/>
<path d="M79.5592 17.8544C80.3695 20.5851 77.9332 23.1647 75.2359 22.4319L70.8765 21.2475C68.2499 20.5339 67.341 17.1966 69.229 15.1976L72.2786 11.9686C74.1665 9.96964 77.4603 10.7819 78.2494 13.441L79.5592 17.8544Z" fill="#FD2D15"/>
<path d="M78.9907 61.0889C79.737 58.3109 77.1825 55.7886 74.4932 56.6481L70.0076 58.0818C67.4262 58.9068 66.6504 62.2568 68.596 64.1778L71.8368 67.3779C73.7824 69.2989 77.0296 68.3893 77.746 65.7226L78.9907 61.0889Z" fill="#FD2D15"/>
<path d="M80.8905 22.5963C81.383 24.3137 80.154 26.0434 78.4043 26.0952L68.6943 26.3828C66.4768 26.4485 65.1517 23.8819 66.4556 22.0468L73.4326 12.2279C74.7366 10.3928 77.5333 10.8883 78.1575 13.065L80.8905 22.5963Z" fill="#FD2D15"/>
<path d="M80.4508 56.9503C80.9841 55.2925 79.8809 53.5556 78.1828 53.3794L68.8652 52.4125C66.6337 52.1809 65.1334 54.6944 66.355 56.6178L72.7466 66.6813C73.9682 68.6047 76.8241 68.2256 77.5249 66.047L80.4508 56.9503Z" fill="#FD2D15"/>
<path d="M63.5481 24.2835C60.9501 24.2835 58.4586 25.9382 56.6216 28.8838C54.7846 31.8293 53.7526 35.8243 53.7526 39.9899C53.7526 44.1555 54.7846 48.1505 56.6216 51.096C58.4586 54.0416 60.9501 55.6963 63.5481 55.6963V24.2835Z" fill="#FD2D15"/>
<path d="M63.1413 47.5017L56.7427 39.7047L62.4924 34.7717L68.891 42.5686L63.1413 47.5017Z" fill="#FD2D15"/>
<path d="M69.3363 36.7298L65.4632 41.128L59.1643 35.329L63.0374 30.9308L69.3363 36.7298Z" fill="#FD2D15"/>
</svg>
