<svg width="170" height="49" viewBox="0 0 170 49" fill="none" xmlns="http://www.w3.org/2000/svg">
<rect width="170" height="48.5714" fill="black"/>
<path d="M50.9294 30.0828C49.8756 30.0828 48.8813 29.964 47.9463 29.7266C47.0261 29.4891 46.3137 29.1923 45.8091 28.8361L47.1449 26.3205C47.6643 26.6618 48.2951 26.9364 49.0371 27.1442C49.794 27.352 50.5509 27.4559 51.3078 27.4559C52.1241 27.4559 52.7177 27.352 53.0888 27.1442C53.4598 26.9364 53.6453 26.6544 53.6453 26.2982C53.6453 26.0163 53.4895 25.8085 53.1778 25.6749C52.881 25.5265 52.4877 25.4078 51.9979 25.3187C51.523 25.2297 51.011 25.1258 50.4619 25.007C49.9276 24.8883 49.4156 24.7251 48.9258 24.5173C48.4509 24.2947 48.0576 23.983 47.7459 23.5823C47.4491 23.1667 47.3007 22.625 47.3007 21.9572C47.3007 21.0667 47.553 20.3098 48.0576 19.6864C48.577 19.0483 49.2894 18.5659 50.1947 18.2394C51.1001 17.9129 52.1389 17.7497 53.3114 17.7497C54.1425 17.7497 54.9514 17.8387 55.7379 18.0168C56.5245 18.1949 57.1924 18.4398 57.7415 18.7514L56.4949 21.2893C55.9457 20.948 55.3521 20.7105 54.7139 20.5769C54.0906 20.4434 53.5043 20.3766 52.9552 20.3766C52.1538 20.3766 51.5676 20.4953 51.1965 20.7328C50.8255 20.9554 50.64 21.2299 50.64 21.5564C50.64 21.8533 50.7884 22.0759 51.0852 22.2243C51.3969 22.3727 51.7902 22.4914 52.2651 22.5805C52.74 22.6695 53.2446 22.7734 53.7789 22.8922C54.328 23.0109 54.8401 23.1816 55.315 23.4042C55.8047 23.612 56.198 23.9162 56.4949 24.3169C56.8065 24.7028 56.9624 25.2297 56.9624 25.8975C56.9624 26.8177 56.6952 27.5894 56.1609 28.2128C55.6415 28.8213 54.9217 29.2888 54.0015 29.6153C53.0962 29.9269 52.0722 30.0828 50.9294 30.0828ZM64.537 30.0828C63.2903 30.0828 62.2069 29.8601 61.2867 29.4149C60.3666 28.9697 59.6542 28.3463 59.1496 27.5449C58.6598 26.7435 58.4149 25.8011 58.4149 24.7176C58.4149 23.3819 58.7118 22.1946 59.3054 21.1557C59.9139 20.102 60.745 19.2709 61.7988 18.6624C62.8673 18.0539 64.0917 17.7497 65.472 17.7497C66.6296 17.7497 67.6314 17.9723 68.4773 18.4175C69.3381 18.8479 69.9986 19.4564 70.4586 20.243C70.9336 21.0296 71.171 21.9572 71.171 23.0257C71.171 23.3522 71.1488 23.6713 71.1042 23.983C71.0745 24.2798 71.03 24.5692 70.9707 24.8512H61.7988C61.9026 26.4838 62.9341 27.3 64.8932 27.3C66.1695 27.3 67.2381 26.929 68.0989 26.1869L69.5459 28.4799C68.8484 29.029 68.0618 29.4372 67.1861 29.7043C66.3253 29.9566 65.4423 30.0828 64.537 30.0828ZM62.0436 22.8254H67.9653C67.9801 22.0388 67.7427 21.4303 67.2529 20.9999C66.7632 20.5695 66.1176 20.3543 65.3161 20.3543C64.485 20.3543 63.7875 20.5843 63.2235 21.0444C62.6744 21.4897 62.2811 22.0833 62.0436 22.8254ZM77.336 30.0828C76.4158 30.0828 75.5625 29.875 74.7759 29.4594C73.9893 29.029 73.3585 28.4205 72.8836 27.6339C72.4087 26.8325 72.1712 25.8604 72.1712 24.7176C72.1712 23.3819 72.4606 22.1872 73.0394 21.1335C73.6331 20.0797 74.4271 19.2561 75.4215 18.6624C76.4307 18.0539 77.5512 17.7497 78.783 17.7497C79.6587 17.7497 80.423 17.8981 81.076 18.1949C81.7439 18.4769 82.2707 18.9295 82.6566 19.5529L82.9905 17.9278H86.4634L84.0814 29.9047H80.7866L81.0315 28.7248C80.5417 29.1552 79.9852 29.4891 79.3618 29.7266C78.7533 29.964 78.0781 30.0828 77.336 30.0828ZM78.4046 27.211C79.0873 27.211 79.6883 27.0477 80.2078 26.7212C80.7421 26.3799 81.1576 25.9198 81.4544 25.341C81.7661 24.7473 81.9219 24.0572 81.9219 23.2706C81.9219 22.4543 81.6845 21.8088 81.2096 21.3338C80.7346 20.8589 80.0594 20.6214 79.1837 20.6214C78.501 20.6214 77.8925 20.7921 77.3583 21.1335C76.8388 21.46 76.4233 21.9201 76.1116 22.5137C75.8148 23.0925 75.6664 23.7752 75.6664 24.5618C75.6664 25.3781 75.9038 26.0237 76.3787 26.4986C76.8537 26.9735 77.5289 27.211 78.4046 27.211ZM87.074 29.9047L89.456 17.9278H92.7508L92.4614 19.3525C92.9957 18.7737 93.6339 18.3656 94.3759 18.1281C95.118 17.8758 95.9714 17.7497 96.936 17.7497L96.3127 20.9554C96.1643 20.9405 96.0233 20.9331 95.8897 20.9331C95.771 20.9183 95.6448 20.9109 95.5113 20.9109C94.4872 20.9109 93.6487 21.1706 92.9957 21.69C92.3575 22.1946 91.9271 23.0035 91.7045 24.1166L90.5469 29.9047H87.074ZM102.566 30.0828C101.319 30.0828 100.243 29.8601 99.3375 29.4149C98.4322 28.9697 97.7273 28.3463 97.2227 27.5449C96.7181 26.7435 96.4658 25.8011 96.4658 24.7176C96.4658 23.3968 96.7774 22.2095 97.4008 21.1557C98.0241 20.102 98.8849 19.2709 99.9831 18.6624C101.081 18.0539 102.343 17.7497 103.768 17.7497C105.044 17.7497 106.142 18.0168 107.062 18.5511C107.997 19.0705 108.695 19.8126 109.155 20.7773L106.216 22.2466C105.949 21.6826 105.586 21.2745 105.126 21.0222C104.68 20.755 104.154 20.6214 103.545 20.6214C102.862 20.6214 102.254 20.7921 101.72 21.1335C101.185 21.46 100.762 21.9201 100.451 22.5137C100.139 23.0925 99.9831 23.7678 99.9831 24.5395C99.9831 25.3558 100.221 26.0088 100.696 26.4986C101.185 26.9735 101.875 27.211 102.766 27.211C103.36 27.211 103.909 27.0848 104.413 26.8325C104.918 26.5654 105.348 26.1572 105.704 25.6081L108.265 27.211C107.686 28.1163 106.892 28.8213 105.883 29.3259C104.888 29.8305 103.782 30.0828 102.566 30.0828ZM118.48 17.7497C119.489 17.7497 120.35 17.9649 121.062 18.3953C121.775 18.8108 122.279 19.4267 122.576 20.243C122.888 21.0593 122.925 22.0685 122.687 23.2706L121.352 29.9047H117.879L119.17 23.4932C119.333 22.6176 119.252 21.9423 118.925 21.4674C118.613 20.9925 118.042 20.755 117.211 20.755C116.335 20.755 115.601 21.0073 115.007 21.5119C114.413 22.0165 114.013 22.7883 113.805 23.8272L112.603 29.9047H109.13L112.425 13.3863H115.897L114.762 19.0186C115.296 18.5882 115.875 18.2691 116.499 18.0613C117.137 17.8536 117.797 17.7497 118.48 17.7497ZM124.299 29.9047L127.594 13.3863H131.067L127.772 29.9047H124.299ZM131.596 34.4016C130.988 34.4016 130.379 34.3051 129.771 34.1122C129.162 33.9192 128.687 33.6669 128.346 33.3553L129.949 30.8619C130.201 31.0845 130.483 31.2626 130.795 31.3962C131.121 31.5298 131.478 31.5966 131.863 31.5966C132.323 31.5966 132.717 31.4853 133.043 31.2626C133.37 31.04 133.696 30.6616 134.023 30.1273L134.134 29.9492L131.374 17.9278H134.846L136.605 26.0979L141.614 17.9278H145.042L137.073 30.7061C136.479 31.6559 135.908 32.398 135.359 32.9323C134.824 33.4666 134.253 33.845 133.644 34.0676C133.051 34.2903 132.368 34.4016 131.596 34.4016ZM148.044 30.0828C146.991 30.0828 145.996 29.964 145.061 29.7266C144.141 29.4891 143.429 29.1923 142.924 28.8361L144.26 26.3205C144.779 26.6618 145.41 26.9364 146.152 27.1442C146.909 27.352 147.666 27.4559 148.423 27.4559C149.239 27.4559 149.833 27.352 150.204 27.1442C150.575 26.9364 150.76 26.6544 150.76 26.2982C150.76 26.0163 150.604 25.8085 150.293 25.6749C149.996 25.5265 149.603 25.4078 149.113 25.3187C148.638 25.2297 148.126 25.1258 147.577 25.007C147.043 24.8883 146.531 24.7251 146.041 24.5173C145.566 24.2947 145.173 23.983 144.861 23.5823C144.564 23.1667 144.416 22.625 144.416 21.9572C144.416 21.0667 144.668 20.3098 145.173 19.6864C145.692 19.0483 146.404 18.5659 147.31 18.2394C148.215 17.9129 149.254 17.7497 150.426 17.7497C151.257 17.7497 152.066 17.8387 152.853 18.0168C153.639 18.1949 154.307 18.4398 154.856 18.7514L153.61 21.2893C153.061 20.948 152.467 20.7105 151.829 20.5769C151.206 20.4434 150.619 20.3766 150.07 20.3766C149.269 20.3766 148.682 20.4953 148.311 20.7328C147.94 20.9554 147.755 21.2299 147.755 21.5564C147.755 21.8533 147.903 22.0759 148.2 22.2243C148.512 22.3727 148.905 22.4914 149.38 22.5805C149.855 22.6695 150.36 22.7734 150.894 22.8922C151.443 23.0109 151.955 23.1816 152.43 23.4042C152.92 23.612 153.313 23.9162 153.61 24.3169C153.921 24.7028 154.077 25.2297 154.077 25.8975C154.077 26.8177 153.81 27.5894 153.276 28.2128C152.756 28.8213 152.037 29.2888 151.116 29.6153C150.211 29.9269 149.187 30.0828 148.044 30.0828ZM160.16 30.0828C159.3 30.0828 158.565 29.9121 157.956 29.5707C157.348 29.2145 156.91 28.7099 156.643 28.0569C156.391 27.4039 156.354 26.6173 156.532 25.6972L157.556 20.5992H155.686L156.22 17.9278H158.09L158.602 15.2786H162.075L161.563 17.9278H164.524L163.989 20.5992H161.029L160.005 25.6749C159.901 26.1795 159.945 26.5802 160.138 26.877C160.346 27.1739 160.709 27.3223 161.229 27.3223C161.704 27.3223 162.171 27.1813 162.631 26.8993L163.143 29.3704C162.713 29.6375 162.238 29.823 161.719 29.9269C161.199 30.0308 160.68 30.0828 160.16 30.0828Z" fill="#EDEDED"/>
<path d="M26.9352 11.4453C26.582 11.728 26.2755 11.89 25.9527 11.8842C25.6314 11.8784 25.3388 11.7067 25.0132 11.4451L25.2328 11.1718C25.5484 11.4255 25.7619 11.5302 25.959 11.5337C26.1546 11.5373 26.3788 11.4416 26.7161 11.1716L26.9352 11.4453Z" fill="#FD2D15"/>
<path d="M15.3457 20.8137C15.6074 21.1393 15.7791 21.432 15.7849 21.7532C15.7907 22.0761 15.6286 22.3825 15.3459 22.7357L15.0723 22.5166C15.3423 22.1793 15.4379 21.9551 15.4344 21.7595C15.4308 21.5624 15.3261 21.349 15.0725 21.0333L15.3457 20.8137Z" fill="#FD2D15"/>
<path d="M26.1026 32.1161C26.4254 32.1103 26.7319 32.2723 27.0851 32.555L26.866 32.8287C26.5287 32.5587 26.3045 32.4631 26.1089 32.4666C25.9118 32.4702 25.6983 32.5749 25.3827 32.8285L25.1631 32.5552C25.4887 32.2936 25.7813 32.1219 26.1026 32.1161Z" fill="#FD2D15"/>
<path d="M36.929 21.0327C36.659 21.37 36.5634 21.5942 36.567 21.7898C36.5705 21.9869 36.6752 22.2004 36.9289 22.516L36.6556 22.7356C36.3939 22.41 36.2223 22.1174 36.2165 21.7961C36.2106 21.4733 36.3727 21.1668 36.6554 20.8136L36.929 21.0327Z" fill="#FD2D15"/>
<path d="M18.9987 27.0097C19.2012 26.7954 19.1953 26.4538 18.9857 26.2468L15.5149 22.8197C15.3052 22.6127 14.9712 22.6187 14.7687 22.833L10.4303 27.4266C10.2279 27.641 10.2337 27.9825 10.4433 28.1895L13.5345 31.2418C13.9538 31.6558 14.622 31.6439 15.0269 31.2152L18.9987 27.0097Z" fill="#FD2D15"/>
<path d="M10.2305 15.8763C10.163 15.8048 10.1649 15.6909 10.2348 15.6219L14.1645 11.7418C14.2344 11.6728 14.3457 11.6748 14.4132 11.7462L18.9228 16.521C18.9902 16.5925 18.9883 16.7063 18.9184 16.7753L14.9888 20.6555C14.9189 20.7245 14.8075 20.7225 14.74 20.651L10.2305 15.8763Z" fill="#FD2D15"/>
<path d="M10.5692 13.0536C10.2491 14.1324 11.2116 15.1515 12.2772 14.862L13.9994 14.3941C15.0371 14.1122 15.3961 12.7937 14.6503 12.004L13.4455 10.7283C12.6996 9.93862 11.3984 10.2595 11.0866 11.31L10.5692 13.0536Z" fill="#FD2D15"/>
<path d="M10.7938 30.1339C10.499 29.0364 11.5081 28.0399 12.5706 28.3795L14.3427 28.9459C15.3625 29.2718 15.669 30.5953 14.9004 31.3542L13.62 32.6184C12.8514 33.3773 11.5685 33.018 11.2855 31.9645L10.7938 30.1339Z" fill="#FD2D15"/>
<path d="M10.0432 14.9269C9.84869 15.6054 10.3342 16.2887 11.0255 16.3092L14.8615 16.4228C15.7376 16.4488 16.2611 15.4348 15.7459 14.7099L12.9896 10.8308C12.4744 10.1058 11.3695 10.3016 11.123 11.1615L10.0432 14.9269Z" fill="#FD2D15"/>
<path d="M10.217 28.4989C10.0063 27.844 10.4421 27.1578 11.113 27.0881L14.794 26.7062C15.6756 26.6147 16.2683 27.6076 15.7857 28.3675L13.2606 32.3432C12.778 33.1031 11.6497 32.9533 11.3729 32.0926L10.217 28.4989Z" fill="#FD2D15"/>
<path d="M16.8946 15.5935C17.9209 15.5935 18.9052 16.2472 19.631 17.4109C20.3567 18.5745 20.7644 20.1528 20.7644 21.7985C20.7644 23.4441 20.3567 25.0224 19.631 26.1861C18.9052 27.3497 17.9209 28.0035 16.8946 28.0035V15.5935Z" fill="#FD2D15"/>
<path d="M17.0553 24.7661L19.5831 21.6858L17.3116 19.737L14.7838 22.8172L17.0553 24.7661Z" fill="#FD2D15"/>
<path d="M14.6079 20.5106L16.138 22.2481L18.6264 19.9571L17.0963 18.2196L14.6079 20.5106Z" fill="#FD2D15"/>
<path d="M20.8416 15.201C21.0513 15.408 21.3854 15.4021 21.5878 15.1877L24.9395 11.6389C25.142 11.4245 25.1361 11.0829 24.9265 10.8759L20.4339 6.43998C20.2243 6.23298 19.8902 6.23894 19.6878 6.4533L16.7026 9.61399C16.2977 10.0427 16.3094 10.7259 16.7287 11.1399L20.8416 15.201Z" fill="#FD2D15"/>
<path d="M31.7303 6.23566C31.8002 6.16665 31.9115 6.16864 31.979 6.24009L35.7739 10.2581C35.8413 10.3296 35.8394 10.4434 35.7695 10.5124L31.0997 15.1234C31.0298 15.1924 30.9185 15.1904 30.851 15.1189L27.0562 11.1009C26.9887 11.0295 26.9906 10.9156 27.0605 10.8466L31.7303 6.23566Z" fill="#FD2D15"/>
<path d="M34.4909 6.58202C33.4359 6.25468 32.4392 7.23881 32.7223 8.32835L33.1799 10.0893C33.4556 11.1503 34.7451 11.5175 35.5174 10.7548L36.765 9.52295C37.5374 8.76034 37.2236 7.42985 36.1961 7.11108L34.4909 6.58202Z" fill="#FD2D15"/>
<path d="M17.7862 6.81164C18.8595 6.51019 19.8341 7.54205 19.502 8.62838L18.9481 10.4403C18.6293 11.4831 17.3349 11.7964 16.5927 11.0105L15.3563 9.70141C14.614 8.91552 14.9655 7.6038 15.9958 7.31444L17.7862 6.81164Z" fill="#FD2D15"/>
<path d="M32.6588 6.04422C31.9952 5.84529 31.3269 6.34174 31.3069 7.04851L31.1958 10.9708C31.1704 11.8666 32.162 12.4018 32.8711 11.8751L36.6648 9.05679C37.3739 8.53007 37.1824 7.40034 36.3414 7.14822L32.6588 6.04422Z" fill="#FD2D15"/>
<path d="M19.3852 6.22184C20.0258 6.00644 20.6969 6.45206 20.765 7.138L21.1385 10.9018C21.228 11.8032 20.2569 12.4092 19.5137 11.9158L15.6254 9.3339C14.8822 8.84044 15.0287 7.68681 15.8705 7.40375L19.3852 6.22184Z" fill="#FD2D15"/>
<path d="M32.0069 13.0496C32.0069 14.099 31.3675 15.1054 30.2294 15.8475C29.0914 16.5895 27.5478 17.0064 25.9383 17.0064C24.3288 17.0064 22.7853 16.5895 21.6472 15.8475C20.5091 15.1054 19.8697 14.099 19.8697 13.0496H32.0069Z" fill="#FD2D15"/>
<path d="M23.0359 13.2139L26.0485 15.7986L27.9545 13.476L24.9419 10.8914L23.0359 13.2139Z" fill="#FD2D15"/>
<path d="M27.1979 10.7115L25.4986 12.276L27.7392 14.8204L29.4385 13.2559L27.1979 10.7115Z" fill="#FD2D15"/>
<path d="M31.2514 28.799C31.0417 28.592 30.7077 28.5979 30.5052 28.8123L27.1535 32.3611C26.951 32.5755 26.9569 32.9171 27.1665 33.1241L31.6591 37.56C31.8687 37.767 32.2028 37.7611 32.4052 37.5467L35.3904 34.386C35.7953 33.9573 35.7836 33.2741 35.3643 32.8601L31.2514 28.799Z" fill="#FD2D15"/>
<path d="M20.3627 37.7643C20.2928 37.8333 20.1815 37.8314 20.114 37.7599L16.3192 33.7419C16.2517 33.6704 16.2536 33.5566 16.3235 33.4876L20.9933 28.8766C21.0632 28.8076 21.1745 28.8096 21.242 28.8811L25.0368 32.8991C25.1043 32.9705 25.1024 33.0844 25.0325 33.1534L20.3627 37.7643Z" fill="#FD2D15"/>
<path d="M17.6021 37.418C18.6572 37.7453 19.6539 36.7612 19.3707 35.6716L18.9131 33.9107C18.6374 32.8497 17.3479 32.4825 16.5756 33.2452L15.328 34.477C14.5556 35.2397 14.8695 36.5701 15.8969 36.8889L17.6021 37.418Z" fill="#FD2D15"/>
<path d="M34.3069 37.1884C33.2335 37.4898 32.2589 36.4579 32.591 35.3716L33.145 33.5597C33.4637 32.5169 34.7581 32.2036 35.5003 32.9895L36.7367 34.2986C37.479 35.0845 37.1275 36.3962 36.0972 36.6856L34.3069 37.1884Z" fill="#FD2D15"/>
<path d="M19.4342 37.9558C20.0978 38.1547 20.7661 37.6583 20.7861 36.9515L20.8973 33.0292C20.9226 32.1334 19.931 31.5982 19.2219 32.1249L15.4282 34.9432C14.7191 35.4699 14.9106 36.5997 15.7516 36.8518L19.4342 37.9558Z" fill="#FD2D15"/>
<path d="M32.7078 37.7782C32.0673 37.9936 31.3961 37.5479 31.3281 36.862L30.9545 33.0982C30.865 32.1968 31.8362 31.5908 32.5793 32.0842L36.4676 34.6661C37.2108 35.1596 37.0643 36.3132 36.2225 36.5962L32.7078 37.7782Z" fill="#FD2D15"/>
<path d="M20.0861 30.9504C20.0861 29.901 20.7255 28.8946 21.8636 28.1525C23.0017 27.4105 24.5452 26.9936 26.1547 26.9936C27.7642 26.9936 29.3078 27.4105 30.4458 28.1525C31.5839 28.8946 32.2233 29.901 32.2233 30.9504H20.0861Z" fill="#FD2D15"/>
<path d="M29.0571 30.7861L26.0445 28.2014L24.1385 30.524L27.1511 33.1086L29.0571 30.7861Z" fill="#FD2D15"/>
<path d="M24.8951 33.2885L26.5945 31.724L24.3538 29.1796L22.6545 30.7441L24.8951 33.2885Z" fill="#FD2D15"/>
<path d="M33.0013 27.0097C32.7988 26.7954 32.8047 26.4538 33.0143 26.2468L36.4851 22.8197C36.6948 22.6127 37.0288 22.6187 37.2313 22.833L41.5697 27.4266C41.7721 27.641 41.7663 27.9825 41.5567 28.1895L38.4655 31.2418C38.0462 31.6558 37.378 31.6439 36.9731 31.2152L33.0013 27.0097Z" fill="#FD2D15"/>
<path d="M41.7695 15.8763C41.837 15.8048 41.8351 15.6909 41.7652 15.6219L37.8355 11.7418C37.7656 11.6728 37.6543 11.6748 37.5868 11.7462L33.0772 16.521C33.0098 16.5925 33.0117 16.7063 33.0816 16.7753L37.0112 20.6555C37.0811 20.7245 37.1925 20.7225 37.26 20.651L41.7695 15.8763Z" fill="#FD2D15"/>
<path d="M41.4308 13.0536C41.7509 14.1324 40.7884 15.1515 39.7228 14.862L38.0006 14.3941C36.9629 14.1122 36.6039 12.7937 37.3497 12.004L38.5545 10.7283C39.3004 9.93862 40.6016 10.2595 40.9133 11.31L41.4308 13.0536Z" fill="#FD2D15"/>
<path d="M41.2062 30.1339C41.501 29.0364 40.4919 28.0399 39.4294 28.3795L37.6573 28.9459C36.6375 29.2718 36.331 30.5953 37.0996 31.3542L38.38 32.6184C39.1486 33.3773 40.4315 33.018 40.7145 31.9645L41.2062 30.1339Z" fill="#FD2D15"/>
<path d="M41.9568 14.9269C42.1513 15.6054 41.6658 16.2887 40.9745 16.3092L37.1385 16.4228C36.2624 16.4488 35.7389 15.4348 36.2541 14.7099L39.0104 10.8308C39.5256 10.1058 40.6305 10.3016 40.877 11.1615L41.9568 14.9269Z" fill="#FD2D15"/>
<path d="M41.783 28.4989C41.9937 27.844 41.5579 27.1578 40.887 27.0881L37.206 26.7062C36.3244 26.6147 35.7317 27.6076 36.2143 28.3675L38.7394 32.3432C39.222 33.1031 40.3503 32.9533 40.6271 32.0926L41.783 28.4989Z" fill="#FD2D15"/>
<path d="M35.1054 15.5935C34.0791 15.5935 33.0948 16.2472 32.369 17.4109C31.6433 18.5745 31.2356 20.1528 31.2356 21.7985C31.2356 23.4441 31.6433 25.0224 32.369 26.1861C33.0948 27.3497 34.0791 28.0035 35.1054 28.0035V15.5935Z" fill="#FD2D15"/>
<path d="M34.9447 24.7661L32.4169 21.6858L34.6884 19.737L37.2162 22.8172L34.9447 24.7661Z" fill="#FD2D15"/>
<path d="M37.3921 20.5106L35.862 22.2481L33.3735 19.9571L34.9037 18.2196L37.3921 20.5106Z" fill="#FD2D15"/>
</svg>
